<svg id="Layer_1" enable-background="new 0 0 512 512" height="512" viewBox="0 0 512 512" width="512" xmlns="http://www.w3.org/2000/svg"><g><path d="m468 402.901c-8.581 5.745-18.898 9.099-30 9.099-29.823 0-54-24.177-54-54v-174c0-29.823 24.177-54 54-54 11.102 0 21.419 3.354 30 9.099-14.47 9.688-24 26.18-24 44.901v174c0 18.721 9.53 35.213 24 44.901zm-388-44.901v-54c0-18.721 9.53-35.213 24-44.901-8.581-5.745-18.898-9.099-30-9.099-29.823 0-54 24.177-54 54v54c0 29.823 24.177 54 54 54 11.102 0 21.419-3.354 30-9.099-14.47-9.688-24-26.18-24-44.901zm182 0v-284c0-18.721 9.53-35.213 24-44.901-8.581-5.745-18.898-9.099-30-9.099-29.823 0-54 24.177-54 54v284c0 29.823 24.177 54 54 54 11.102 0 21.419-3.354 30-9.099-14.47-9.688-24-26.18-24-44.901z" fill="#cee1f2"/><path d="m438 432c-40.804 0-74-33.196-74-74v-174c0-40.804 33.196-74 74-74s74 33.196 74 74v174c0 40.804-33.196 74-74 74zm0-282c-18.748 0-34 15.252-34 34v174c0 18.748 15.252 34 34 34s34-15.252 34-34v-174c0-18.748-15.252-34-34-34zm-364 282c-40.804 0-74-33.196-74-74v-54c0-40.804 33.196-74 74-74s74 33.196 74 74v54c0 40.804-33.196 74-74 74zm0-162c-18.748 0-34 15.252-34 34v54c0 18.748 15.252 34 34 34s34-15.252 34-34v-54c0-18.748-15.252-34-34-34zm182 162c-40.804 0-74-33.196-74-74v-284c0-40.804 33.196-74 74-74s74 33.196 74 74v284c0 40.804-33.196 74-74 74zm0-392c-18.748 0-34 15.252-34 34v284c0 18.748 15.252 34 34 34s34-15.252 34-34v-284c0-18.748-15.252-34-34-34z" fill="#1428bf"/><path d="m492 512h-472c-11.046 0-20-8.954-20-20s8.954-20 20-20h472c11.046 0 20 8.954 20 20s-8.954 20-20 20z" fill="#ff5cf0"/></g></svg>